<svg xmlns="http://www.w3.org/2000/svg" version="1.1" xmlns:xlink="http://www.w3.org/1999/xlink" xmlns:svgjs="http://svgjs.dev/svgjs" width="1500" height="151" viewBox="0 0 1500 151"><g transform="matrix(1,0,0,1,-0.9090901689473867,0.03204448722601683)"><svg viewBox="0 0 396 40" data-background-color="#f9f9f9" preserveAspectRatio="xMidYMid meet" height="151" width="1500" xmlns="http://www.w3.org/2000/svg" xmlns:xlink="http://www.w3.org/1999/xlink"><g id="tight-bounds" transform="matrix(1,0,0,1,0.239999804602121,0.3670422097378605)"><svg viewBox="0 0 395.52 39.265915580524265" height="39.265915580524265" width="395.52"><g><svg viewBox="0 0 581.8344794519869 57.7626" height="39.265915580524265" width="395.52"><g><svg viewBox="0 0 581.8344794519869 57.7626" height="57.7626" width="581.8344794519869"><g id="textblocktransform"><svg viewBox="0 0 581.8344794519869 57.7626" height="57.7626" width="581.8344794519869" id="textblock"><g><svg viewBox="0 0 581.8344794519869 57.7626" height="57.7626" width="581.8344794519869"><g><svg><g></g><g></g></svg></g><g><svg><g><svg></svg></g><g></g></svg></g><g id="text-0"><svg viewBox="0 0 581.8344794519869 57.7626" height="57.7626" width="581.8344794519869"><g transform="matrix(1,0,0,1,0,11.081299999999999)"><svg width="351.25" viewBox="0.5 -35 351.22 35.6" height="35.6" data-palette-color="#030303"><path d="M13.25-34.5L17.85-34.5Q18.45-34.5 18.9-34.18 19.35-33.85 19.5-33.3L19.5-33.3 30.6 0 26.05 0 17.1-28.3Q16.9-29 16.68-29.73 16.45-30.45 16.25-31.1L16.25-31.1 14.85-31.1Q14.65-30.45 14.45-29.73 14.25-29 14-28.3L14-28.3 5.05 0 0.5 0 11.6-33.3Q11.75-33.85 12.2-34.18 12.65-34.5 13.25-34.5L13.25-34.5ZM6.75-14.6L24.25-14.6 24.25-10.8 6.75-10.8 6.75-14.6ZM64.65-24.95L64.65-24.95Q67.8-24.95 69.47-23.25 71.15-21.55 71.15-18.25L71.15-18.25 71.15 0 66.95 0 66.95-17.05Q66.9-19.3 66.05-20.33 65.2-21.35 63.15-21.35L63.15-21.35Q61.85-21.35 60.67-20.93 59.5-20.5 58.1-19.6 56.7-18.7 54.7-17.25L54.7-17.25 54.45-20.25Q57.1-22.6 59.6-23.78 62.1-24.95 64.65-24.95ZM35-24.35L38.5-24.35 38.8-19.7 39.25-18.95 39.25 0 35 0 35-24.35ZM48.7-24.95L48.7-24.95Q51.8-24.95 53.45-23.28 55.1-21.6 55.15-18.25L55.15-18.25 55.15 0 51.05 0 51.05-17.05Q51.05-19.4 50.1-20.38 49.15-21.35 47.25-21.35L47.25-21.35Q46-21.35 44.82-20.95 43.65-20.55 42.22-19.65 40.8-18.75 38.75-17.25L38.75-17.25 38.45-20.25Q41.1-22.6 43.6-23.78 46.1-24.95 48.7-24.95ZM91.9-24.95L91.9-24.95Q96.4-24.95 98.55-22.03 100.7-19.1 100.7-12.25L100.7-12.25Q100.7-9.1 100.17-6.7 99.65-4.3 98.42-2.68 97.2-1.05 95.12-0.23 93.05 0.6 89.9 0.6L89.9 0.6Q88.65 0.6 87.2 0.5 85.75 0.4 84.25 0.18 82.75-0.05 81.32-0.38 79.9-0.7 78.7-1.15L78.7-1.15 82.1-4.05Q83.45-3.65 84.77-3.4 86.1-3.15 87.37-3.08 88.65-3 89.8-3L89.8-3Q92.15-3.05 93.57-3.9 95-4.75 95.65-6.78 96.3-8.8 96.3-12.25L96.3-12.25Q96.3-15.6 95.8-17.57 95.3-19.55 94.02-20.4 92.75-21.25 90.4-21.25L90.4-21.25Q88.4-21.25 86.6-20.18 84.8-19.1 82.45-17.25L82.45-17.25 82.15-20.1Q83.65-21.7 85.22-22.78 86.8-23.85 88.5-24.4 90.2-24.95 91.9-24.95ZM78.7-35L82.95-35 82.95-25.9Q82.95-24.35 82.87-23.05 82.8-21.75 82.5-20.4L82.5-20.4 82.9-19.7 82.95-0.95 78.7-1.15 78.7-35ZM117.29-24.95L117.29-24.95Q122.79-24.95 125.27-22.95 127.74-20.95 127.74-17L127.74-17Q127.79-13.75 126.39-11.93 124.99-10.1 121.94-10.1L121.94-10.1 107.74-10.1 107.74-13.4 120.84-13.4Q122.49-13.4 122.99-14.53 123.49-15.65 123.49-17L123.49-17Q123.44-19.35 122.09-20.35 120.74-21.35 117.49-21.35L117.49-21.35Q114.84-21.35 113.32-20.58 111.79-19.8 111.17-17.88 110.54-15.95 110.54-12.5L110.54-12.5Q110.54-8.6 111.32-6.55 112.09-4.5 113.79-3.75 115.49-3 118.29-3L118.29-3Q120.24-3 122.57-3.18 124.89-3.35 126.74-3.6L126.74-3.6 127.19-0.75Q126.04-0.3 124.37 0 122.69 0.3 120.92 0.45 119.14 0.6 117.74 0.6L117.74 0.6Q113.54 0.6 110.99-0.68 108.44-1.95 107.27-4.78 106.09-7.6 106.09-12.25L106.09-12.25Q106.09-17.05 107.27-19.83 108.44-22.6 110.92-23.78 113.39-24.95 117.29-24.95ZM152.54-34.5L156.94-34.5 156.94 0 152.54 0 152.54-34.5ZM141.44-34.5L168.09-34.5 168.09-30.6 141.44-30.6 141.44-34.5ZM177.59-24.95L177.59-24.95Q183.09-24.95 185.56-22.95 188.04-20.95 188.04-17L188.04-17Q188.09-13.75 186.69-11.93 185.29-10.1 182.24-10.1L182.24-10.1 168.04-10.1 168.04-13.4 181.14-13.4Q182.79-13.4 183.29-14.53 183.79-15.65 183.79-17L183.79-17Q183.74-19.35 182.39-20.35 181.04-21.35 177.79-21.35L177.79-21.35Q175.14-21.35 173.61-20.58 172.09-19.8 171.46-17.88 170.84-15.95 170.84-12.5L170.84-12.5Q170.84-8.6 171.61-6.55 172.39-4.5 174.09-3.75 175.79-3 178.59-3L178.59-3Q180.54-3 182.86-3.18 185.19-3.35 187.04-3.6L187.04-3.6 187.49-0.75Q186.34-0.3 184.66 0 182.99 0.3 181.21 0.45 179.44 0.6 178.04 0.6L178.04 0.6Q173.84 0.6 171.29-0.68 168.74-1.95 167.56-4.78 166.39-7.6 166.39-12.25L166.39-12.25Q166.39-17.05 167.56-19.83 168.74-22.6 171.21-23.78 173.69-24.95 177.59-24.95ZM204.83-24.95L204.83-24.95Q205.93-24.95 207.28-24.85 208.63-24.75 210.06-24.5 211.48-24.25 212.68-23.8L212.68-23.8 212.13-21.05Q210.48-21.2 208.66-21.28 206.83-21.35 205.53-21.35L205.53-21.35Q202.63-21.35 200.93-20.55 199.23-19.75 198.48-17.75 197.73-15.75 197.73-12.2L197.73-12.2Q197.73-8.65 198.48-6.63 199.23-4.6 200.93-3.8 202.63-3 205.53-3L205.53-3Q206.28-3 207.48-3.05 208.68-3.1 210.06-3.2 211.43-3.3 212.68-3.5L212.68-3.5 213.13-0.65Q211.28 0 209.11 0.3 206.93 0.6 204.78 0.6L204.78 0.6Q200.58 0.6 198.03-0.65 195.48-1.9 194.36-4.7 193.23-7.5 193.23-12.2L193.23-12.2Q193.23-16.9 194.38-19.7 195.53-22.5 198.08-23.73 200.63-24.95 204.83-24.95ZM233.68-24.95L233.68-24.95Q240.28-24.95 240.28-18.25L240.28-18.25 240.28 0 235.98 0 235.98-17.05Q235.98-19.5 235.21-20.43 234.43-21.35 232.53-21.35L232.53-21.35Q230.28-21.35 228.03-20.3 225.78-19.25 222.68-17.25L222.68-17.25 222.48-20.3Q225.33-22.45 228.13-23.7 230.93-24.95 233.68-24.95ZM218.88-35L223.13-35 223.18-25.35Q223.18-23.7 223.06-22.25 222.93-20.8 222.68-19.7L222.68-19.7 223.13-18.95 223.13 0 218.88 0 218.88-35ZM262.73-24.95L262.73-24.95Q269.33-24.95 269.33-18.25L269.33-18.25 269.33 0 265.08 0 265.08-17.05Q265.08-19.5 264.28-20.43 263.48-21.35 261.58-21.35L261.58-21.35Q259.33-21.35 257.08-20.25 254.83-19.15 251.73-17.25L251.73-17.25 251.53-20.3Q254.38-22.5 257.18-23.73 259.98-24.95 262.73-24.95ZM247.93-24.35L251.53-24.35 251.88-19.7 252.18-18.95 252.18 0 247.93 0 247.93-24.35ZM277.18-24.35L281.38-24.35 281.38 0 277.18 0 277.18-24.35ZM278.28-34.7L280.28-34.7Q281.58-34.7 281.58-33.4L281.58-33.4 281.58-30.55Q281.58-29.25 280.28-29.25L280.28-29.25 278.28-29.25Q276.98-29.25 276.98-30.55L276.98-30.55 276.98-33.4Q276.98-34.7 278.28-34.7L278.28-34.7ZM299.77-24.95L299.77-24.95Q300.87-24.95 302.22-24.85 303.57-24.75 305-24.5 306.42-24.25 307.62-23.8L307.62-23.8 307.07-21.05Q305.42-21.2 303.6-21.28 301.77-21.35 300.47-21.35L300.47-21.35Q297.57-21.35 295.87-20.55 294.17-19.75 293.42-17.75 292.67-15.75 292.67-12.2L292.67-12.2Q292.67-8.65 293.42-6.63 294.17-4.6 295.87-3.8 297.57-3 300.47-3L300.47-3Q301.22-3 302.42-3.05 303.62-3.1 305-3.2 306.37-3.3 307.62-3.5L307.62-3.5 308.07-0.65Q306.22 0 304.05 0.3 301.87 0.6 299.72 0.6L299.72 0.6Q295.52 0.6 292.97-0.65 290.42-1.9 289.3-4.7 288.17-7.5 288.17-12.2L288.17-12.2Q288.17-16.9 289.32-19.7 290.47-22.5 293.02-23.73 295.57-24.95 299.77-24.95ZM325.32-24.95L325.32-24.95Q328.02-24.95 329.9-24.23 331.77-23.5 332.72-21.8 333.67-20.1 333.67-17.15L333.67-17.15 333.67 0 330.32 0 329.67-5.3 329.37-5.85 329.37-17.15Q329.37-19.4 328.35-20.38 327.32-21.35 324.42-21.35L324.42-21.35Q322.52-21.35 319.65-21.15 316.77-20.95 313.97-20.7L313.97-20.7 313.57-23.85Q315.27-24.15 317.3-24.4 319.32-24.65 321.42-24.8 323.52-24.95 325.32-24.95ZM319.22-15L331.67-15 331.62-11.8 319.97-11.75Q318.22-11.7 317.52-10.83 316.82-9.95 316.82-8.4L316.82-8.4 316.82-6.85Q316.82-4.95 317.72-4.08 318.62-3.2 320.62-3.2L320.62-3.2Q322.02-3.2 323.8-3.73 325.57-4.25 327.37-5.35 329.17-6.45 330.67-8.15L330.67-8.15 330.67-5Q330.12-4.3 329.1-3.38 328.07-2.45 326.65-1.58 325.22-0.7 323.5-0.13 321.77 0.45 319.77 0.45L319.77 0.45Q317.62 0.45 315.97-0.33 314.32-1.1 313.4-2.63 312.47-4.15 312.47-6.35L312.47-6.35 312.47-9Q312.47-11.85 314.25-13.43 316.02-15 319.22-15L319.22-15ZM341.32-35L345.57-35 345.52-6.7Q345.52-5.1 346.39-4.28 347.27-3.45 348.87-3.45L348.87-3.45 351.22-3.45 351.72-0.2Q351.27 0 350.44 0.15 349.62 0.3 348.74 0.38 347.87 0.45 347.27 0.45L347.27 0.45Q344.57 0.45 342.94-1.15 341.32-2.75 341.32-5.75L341.32-5.75 341.32-35Z" opacity="1" transform="matrix(1,0,0,1,0,0)" fill="#030303" class="undefined-tk-0" data-fill-palette-color="primary"></path></svg></g><g><svg xmlns="http://www.w3.org/2000/svg" xmlns:xlink="http://www.w3.org/1999/xlink" version="1.1" x="364.8874" y="0" viewBox="11.017823632605122 11.461749422187646 37.96369815853941 37.06825057781236" style="enable-background:new 0 0 60 60;" xml:space="preserve" height="57.7626" width="59.157955314055855" class="icon-dxe-0" data-fill-palette-color="accent" id="dxe-0"><path d="M48.85 34.1L35.82 11.92A0.945 0.945 0 0 0 34.2 11.92L30 19.08 25.79 11.93A0.945 0.945 0 0 0 24.17 11.93L11.15 34.1C10.93 34.47 10.99 34.93 11.29 35.23L24.32 48.26C24.5 48.44 24.74 48.53 24.98 48.53S25.46 48.44 25.64 48.26L30 43.91 34.35 48.26C34.53 48.44 34.77 48.53 35.01 48.53S35.49 48.44 35.67 48.26L48.7 35.23C49.01 34.93 49.07 34.46 48.85 34.1M24.99 46.28L13.13 34.42 24.99 14.24 28.92 20.92 21.17 34.1C20.95 34.47 21.01 34.93 21.31 35.23L28.67 42.59zM30 22.77L36.85 34.42 30 41.27 23.15 34.42zM35.01 46.28L31.32 42.59 38.68 35.23C38.98 34.93 39.04 34.46 38.82 34.1L31.08 20.93 35.01 14.25 46.87 34.43z" fill="#030303" data-fill-palette-color="accent"></path></svg></g><g transform="matrix(1,0,0,1,437.6827553140559,10.981299999999997)"><svg width="144.151724137931" viewBox="3.05 -35.1 144.14172355737497 35.7" height="35.7" data-palette-color="#030303"><path d="M16.6-35.1L16.6-35.1Q18.8-35.1 20.38-35 21.95-34.9 23.28-34.68 24.6-34.45 26-34.1L26-34.1 25.55-30.75Q24.05-30.9 22.78-31 21.5-31.1 20.05-31.15 18.6-31.2 16.6-31.2L16.6-31.2Q13.25-31.2 11.3-29.9 9.35-28.6 8.53-25.55 7.7-22.5 7.7-17.25L7.7-17.25Q7.7-12 8.53-8.95 9.35-5.9 11.3-4.6 13.25-3.3 16.6-3.3L16.6-3.3Q19.8-3.3 21.98-3.43 24.15-3.55 26.25-3.85L26.25-3.85 26.7-0.55Q24.55 0.05 22.28 0.33 20 0.6 16.6 0.6L16.6 0.6Q11.65 0.6 8.68-1.13 5.7-2.85 4.38-6.75 3.05-10.65 3.05-17.25L3.05-17.25Q3.05-23.85 4.38-27.75 5.7-31.65 8.68-33.38 11.65-35.1 16.6-35.1ZM42.4-24.95L42.4-24.95Q47.9-24.95 50.37-22.95 52.85-20.95 52.85-17L52.85-17Q52.9-13.75 51.5-11.93 50.1-10.1 47.05-10.1L47.05-10.1 32.85-10.1 32.85-13.4 45.95-13.4Q47.6-13.4 48.1-14.53 48.6-15.65 48.6-17L48.6-17Q48.55-19.35 47.2-20.35 45.85-21.35 42.6-21.35L42.6-21.35Q39.95-21.35 38.42-20.58 36.9-19.8 36.27-17.88 35.65-15.95 35.65-12.5L35.65-12.5Q35.65-8.6 36.42-6.55 37.2-4.5 38.9-3.75 40.6-3 43.4-3L43.4-3Q45.35-3 47.67-3.18 50-3.35 51.85-3.6L51.85-3.6 52.3-0.75Q51.15-0.3 49.47 0 47.8 0.3 46.02 0.45 44.25 0.6 42.85 0.6L42.85 0.6Q38.65 0.6 36.1-0.68 33.55-1.95 32.37-4.78 31.2-7.6 31.2-12.25L31.2-12.25Q31.2-17.05 32.37-19.83 33.55-22.6 36.02-23.78 38.5-24.95 42.4-24.95ZM74.05-24.95L74.05-24.95Q80.64-24.95 80.64-18.25L80.64-18.25 80.64 0 76.39 0 76.39-17.05Q76.39-19.5 75.59-20.43 74.8-21.35 72.89-21.35L72.89-21.35Q70.64-21.35 68.39-20.25 66.14-19.15 63.05-17.25L63.05-17.25 62.84-20.3Q65.69-22.5 68.5-23.73 71.3-24.95 74.05-24.95ZM59.24-24.35L62.84-24.35 63.2-19.7 63.49-18.95 63.49 0 59.24 0 59.24-24.35ZM90.14-31.55L94.39-31.55 94.39-6.7Q94.39-4.95 95.14-4.2 95.89-3.45 97.69-3.45L97.69-3.45 101.39-3.45 101.89-0.2Q101.09 0 100.04 0.15 98.99 0.3 97.99 0.38 96.99 0.45 96.39 0.45L96.39 0.45Q93.34 0.45 91.74-1.25 90.14-2.95 90.14-6.15L90.14-6.15 90.14-31.55ZM90.54-24.35L102.14-24.35 102.14-21 85.74-21 85.74-24.1 90.54-24.35ZM107.34-24.35L110.64-24.35 111.19-19.7 111.59-18.95 111.59 0 107.34 0 107.34-24.35ZM121.49-24.95L122.59-24.95 122.09-20.95 120.69-20.95Q118.54-20.95 116.39-20.08 114.24-19.2 111.14-17.6L111.14-17.6 110.79-20.25Q113.49-22.45 116.22-23.7 118.94-24.95 121.49-24.95L121.49-24.95ZM136.74-24.95L136.74-24.95Q142.24-24.95 144.71-22.95 147.19-20.95 147.19-17L147.19-17Q147.24-13.75 145.84-11.93 144.44-10.1 141.39-10.1L141.39-10.1 127.19-10.1 127.19-13.4 140.29-13.4Q141.94-13.4 142.44-14.53 142.94-15.65 142.94-17L142.94-17Q142.89-19.35 141.54-20.35 140.19-21.35 136.94-21.35L136.94-21.35Q134.29-21.35 132.76-20.58 131.24-19.8 130.61-17.88 129.99-15.95 129.99-12.5L129.99-12.5Q129.99-8.6 130.76-6.55 131.54-4.5 133.24-3.75 134.94-3 137.74-3L137.74-3Q139.69-3 142.01-3.18 144.34-3.35 146.19-3.6L146.19-3.6 146.64-0.75Q145.49-0.3 143.81 0 142.14 0.3 140.36 0.45 138.59 0.6 137.19 0.6L137.19 0.6Q132.99 0.6 130.44-0.68 127.89-1.95 126.71-4.78 125.54-7.6 125.54-12.25L125.54-12.25Q125.54-17.05 126.71-19.83 127.89-22.6 130.36-23.78 132.84-24.95 136.74-24.95Z" opacity="1" transform="matrix(1,0,0,1,0,0)" fill="#030303" class="undefined-tk-1" data-fill-palette-color="secondary"></path></svg></g></svg></g></svg></g></svg></g></svg></g><g></g></svg></g><defs></defs></svg><rect width="395.52" height="39.265915580524265" fill="none" stroke="none" visibility="hidden"></rect></g></svg></g></svg>